<svg width="38" height="38" viewBox="0 0 38 38" fill="none" xmlns="http://www.w3.org/2000/svg">
<g clip-path="url(#clip0_5955_1642)">
<path fill-rule="evenodd" clip-rule="evenodd" d="M10.5655 1.92C10.5205 1.92644 10.4745 1.92977 10.4277 1.92977H6.16016C3.8275 1.92977 1.92969 3.82754 1.92969 6.16023V10.4278C1.92969 10.4744 1.92638 10.5202 1.92 10.5651V12.0001H0V6.16023C0 2.7635 2.76346 7.80821e-05 6.16016 7.80821e-05L12 0V1.92H10.5655ZM10.4277 36.0704C10.4743 36.0704 10.5202 36.0737 10.565 36.0801H12V38.0001H6.16016C2.76346 38.0001 0 35.2366 0 31.8399V26.0001H1.92V27.4351C1.92638 27.4799 1.92969 27.5258 1.92969 27.5723V31.8399C1.92969 34.1726 3.8275 36.0704 6.16016 36.0704H10.4277ZM38 31.8399V27.5723C38 27.552 37.9994 27.5317 37.9981 27.5117V26.0001H36.0781V27.449C36.073 27.4894 36.0703 27.5306 36.0703 27.5723V31.8399C36.0703 34.1726 34.1725 36.0704 31.8398 36.0704H27.5723C27.5257 36.0704 27.4798 36.0737 27.435 36.0801H26V38.0001H31.8398C35.2365 38.0001 38 35.2366 38 31.8399ZM38 6.16023V10.4278C38 10.4482 37.9994 10.4684 37.9981 10.4885V12.0001H36.0781V10.5512C36.073 10.5108 36.0703 10.4696 36.0703 10.4278V6.16023C36.0703 3.82754 34.1725 1.92977 31.8398 1.92977H27.5723C27.5255 1.92977 27.4795 1.92644 27.4345 1.92H26V0L31.8398 7.80821e-05C35.2365 7.80821e-05 38 2.7635 38 6.16023ZM25.7146 26.6699C26.0901 27.0764 26.065 27.7103 25.6585 28.0858C23.8407 29.7648 21.476 30.6895 19 30.6895C16.5239 30.6895 14.1593 29.7648 12.3415 28.0858C11.935 27.7103 11.9099 27.0764 12.2854 26.6699C12.6609 26.2634 13.2947 26.2383 13.7012 26.6137C15.1476 27.9498 17.0295 28.6856 19 28.6856C20.9705 28.6856 22.8524 27.9498 24.2988 26.6137C24.7053 26.2383 25.3391 26.2634 25.7146 26.6699ZM21.0039 14.3243V21.4493C21.0039 22.8612 19.8553 24.0098 18.4434 24.0098H17.627C17.0736 24.0098 16.625 23.5613 16.625 23.0079C16.625 22.4545 17.0736 22.0059 17.627 22.0059H18.4434C18.7503 22.0059 19 21.7562 19 21.4493V14.3243C19 13.7709 19.4486 13.3223 20.002 13.3223C20.5553 13.3223 21.0039 13.7709 21.0039 14.3243ZM27.9062 14.2686V17.1261C27.9062 17.6487 27.4826 18.0723 26.96 18.0723C26.4373 18.0723 26.0137 17.6487 26.0137 17.1261V14.2686C26.0137 13.746 26.4373 13.3223 26.96 13.3223C27.4826 13.3223 27.9062 13.746 27.9062 14.2686ZM10.3164 17.1261C10.3164 17.6487 10.7401 18.0723 11.2627 18.0723C11.7853 18.0723 12.209 17.6487 12.209 17.1261V14.2686C12.209 13.746 11.7853 13.3223 11.2627 13.3223C10.7401 13.3223 10.3164 13.746 10.3164 14.2686V17.1261Z" fill="url(#paint0_linear_5955_1642)"/>
</g>
<defs>
<linearGradient id="paint0_linear_5955_1642" x1="19" y1="0" x2="19" y2="38.0001" gradientUnits="userSpaceOnUse">
<stop stop-color="#DEDEDE"/>
<stop offset="1" stop-color="#838383"/>
</linearGradient>
<clipPath id="clip0_5955_1642">
<rect width="38" height="38" fill="white"/>
</clipPath>
</defs>
</svg>
