<svg fill="none" viewBox="0 0 87 20" class="logo__icon" astro-icon="tangem-logo"><path fill="currentColor" fill-rule="evenodd" d="M3.414.82h7.576c1.195 0 1.792 0 2.249.233.402.203.727.53.932.931.233.457.233 1.054.233 2.249V5.5H0V4.233c0-1.195 0-1.792.233-2.249.203-.401.53-.727.932-.931C1.622.82 2.219.82 3.414.82Zm10.991 8.64H9.603l.002.665v8.695h1.386c1.195 0 1.792 0 2.25-.233.4-.203.726-.53.931-.931.233-.457.233-1.054.233-2.25V9.46ZM4.8 9.82H0v5.947c0 1.195 0 1.792.233 2.248.205.402.53.729.932.932.457.233 1.054.233 2.249.233H4.8V9.82Zm18.954 2.698c0 1.832 1 2.868 2.925 2.868.685 0 1.166-.11 1.518-.24v-1.777c-.315.13-.648.186-1.093.186-.703 0-1.11-.39-1.11-1.24V7.226h2.128V5.542h-2.128V3.414h-2.24v2.128H22.46v1.684h1.295v5.292Zm11.673-.684c0 1.24-1.018 1.961-2.388 1.961-1.11 0-1.555-.537-1.555-1.35 0-1.185 1.092-1.574 2.795-1.574h1.148v.963Zm-6.164.703c0 2.017 1.462 2.868 3.24 2.868 1.48 0 2.331-.537 2.96-1.37v1.185h2.203V8.873c0-2.646-1.702-3.534-3.868-3.534s-3.96.943-4.146 3.2h2.165c.112-.961.685-1.516 1.851-1.516 1.315 0 1.759.647 1.759 1.943v.5h-1.203c-2.777 0-4.96.813-4.96 3.07Zm10.248 2.683V5.542h2.24v1.536c.463-.944 1.536-1.74 3.128-1.74 1.943 0 3.313 1.13 3.313 3.794v6.088h-2.24V9.336c0-1.462-.592-2.128-1.924-2.128-1.26 0-2.277.777-2.277 2.313v5.699h-2.24Zm17.72-5.07c0 1.85-1.128 2.96-2.683 2.96-1.444 0-2.554-1.11-2.554-2.905v-.148c0-1.758.962-2.96 2.628-2.96 1.61 0 2.61 1.091 2.61 2.923v.13Zm-7.421 5.403c.259 1.85 1.628 3.22 4.664 3.22 2.998 0 4.905-1.425 4.923-4.275V5.542h-2.24v1.48c-.555-.962-1.517-1.683-3.109-1.683-2.498 0-4.35 2.035-4.35 4.755v.13c0 2.794 1.87 4.607 4.295 4.607 1.425 0 2.628-.87 3.165-1.795v1.425c0 1.74-.963 2.61-2.703 2.61-1.462 0-2.202-.556-2.387-1.518H49.81Zm16.099-.148c-2.85 0-4.905-1.869-4.905-4.922v-.148c0-2.998 2.055-4.996 4.812-4.996 2.406 0 4.572 1.425 4.572 4.885v.647h-7.089c.074 1.832 1 2.868 2.665 2.868 1.352 0 2.055-.536 2.221-1.48h2.166c-.315 2.036-1.962 3.146-4.442 3.146Zm-2.573-6.032h4.83c-.11-1.666-.962-2.406-2.35-2.406-1.35 0-2.258.907-2.48 2.406Zm8.645-3.83v9.677h2.24V9.428c0-1.48 1.018-2.22 2.128-2.22 1.092 0 1.721.61 1.721 2.035v5.977h2.24V9.428c0-1.48 1.018-2.22 2.129-2.22 1.11 0 1.72.61 1.72 2.035v5.977h2.24V9.095c0-2.665-1.443-3.756-3.22-3.756-1.203 0-2.536.536-3.276 1.74-.481-1.204-1.48-1.74-2.74-1.74-1.425 0-2.48.777-2.942 1.684v-1.48h-2.24Z" clip-rule="evenodd"></path></svg>