<svg width="68" height="27" viewBox="0 0 68 27" fill="none" xmlns="http://www.w3.org/2000/svg">
<path d="M60 2H8C6.56687 2 5.6123 2.00156 4.87887 2.06148C4.1688 2.11949 3.84387 2.2221 3.63803 2.32698C3.07354 2.6146 2.6146 3.07354 2.32698 3.63803C2.2221 3.84387 2.11949 4.1688 2.06148 4.87887C2.00156 5.6123 2 6.56687 2 8V14C2 15.4331 2.00156 16.3877 2.06148 17.1211C2.11949 17.8312 2.2221 18.1561 2.32698 18.362C2.6146 18.9265 3.07354 19.3854 3.63803 19.673C3.84387 19.7779 4.1688 19.8805 4.87887 19.9385C5.6123 19.9984 6.56687 20 8 20H42V22H8C5.19974 22 3.79961 22 2.73005 21.455C1.78924 20.9757 1.02433 20.2108 0.544967 19.27C0 18.2004 0 16.8003 0 14V8C0 5.19974 0 3.79961 0.544967 2.73005C1.02433 1.78924 1.78924 1.02433 2.73005 0.544967C3.79961 0 5.19974 0 8 0H60C62.8003 0 64.2004 0 65.27 0.544967C66.2108 1.02433 66.9757 1.78924 67.455 2.73005C68 3.79961 68 5.19974 68 8V12H66V8C66 6.56687 65.9984 5.6123 65.9385 4.87887C65.8805 4.1688 65.7779 3.84387 65.673 3.63803C65.3854 3.07354 64.9265 2.6146 64.362 2.32698C64.1561 2.2221 63.8312 2.11949 63.1211 2.06148C62.3877 2.00156 61.4331 2 60 2Z" fill="url(#paint0_linear_6054_1646)"/>
<path d="M6.45361 13.009L9.5 11.2501L6.45312 9.49103L7.45312 7.75897L10.5 9.51809V6H12.5V9.51809L15.5469 7.75897L16.5469 9.49103L13.5 11.2501L16.5464 13.009L15.5464 14.741L12.5 12.9822V16.5H10.5V12.9822L7.45361 14.741L6.45361 13.009Z" fill="url(#paint1_linear_6054_1646)"/>
<path d="M22.0469 11.2501L19.0005 13.009L20.0005 14.741L23.0469 12.9822V16.5H25.0469V12.9822L28.0933 14.741L29.0933 13.009L26.0469 11.2501L29.0938 9.49103L28.0938 7.75897L25.0469 9.51809V6H23.0469V9.51809L20 7.75897L19 9.49103L22.0469 11.2501Z" fill="url(#paint2_linear_6054_1646)"/>
<path d="M32.0005 13.009L35.0469 11.2501L32 9.49103L33 7.75897L36.0469 9.51809V6H38.0469V9.51809L41.0938 7.75897L42.0938 9.49103L39.0469 11.2501L42.0933 13.009L41.0933 14.741L38.0469 12.9822V16.5H36.0469V12.9822L33.0005 14.741L32.0005 13.009Z" fill="url(#paint3_linear_6054_1646)"/>
<path fill-rule="evenodd" clip-rule="evenodd" d="M49 12.0017C47.8351 12.0098 47.1687 12.0566 46.638 12.327C46.0735 12.6146 45.6146 13.0735 45.327 13.638C45 14.2798 45 15.1198 45 16.8V22.2C45 23.8802 45 24.7202 45.327 25.362C45.6146 25.9265 46.0735 26.3854 46.638 26.673C47.2798 27 48.1198 27 49.8 27H59.2C60.8802 27 61.7202 27 62.362 26.673C62.9265 26.3854 63.3854 25.9265 63.673 25.362C64 24.7202 64 23.8802 64 22.2V16.8C64 15.1198 64 14.2798 63.673 13.638C63.3854 13.0735 62.9265 12.6146 62.362 12.327C61.8313 12.0566 61.1649 12.0098 60 12.0017V10.5C60 7.46243 57.5376 5 54.5 5C51.4624 5 49 7.46243 49 10.5V12.0017ZM61.0075 14.0342C60.6076 14.0016 60.0731 14 59.2 14H49.8C48.9269 14 48.3924 14.0016 47.9925 14.0342C47.8062 14.0495 47.6935 14.0686 47.625 14.0847C47.5924 14.0924 47.5724 14.0988 47.5616 14.1027C47.5572 14.1042 47.5538 14.1055 47.5514 14.1066C47.5481 14.1079 47.546 14.109 47.546 14.109C47.3578 14.2049 47.2049 14.3578 47.109 14.546C47.109 14.546 47.1082 14.5476 47.1072 14.55C47.1061 14.5525 47.1046 14.5562 47.1027 14.5616C47.0988 14.5724 47.0924 14.5924 47.0847 14.625C47.0686 14.6935 47.0495 14.8062 47.0342 14.9925C47.0016 15.3924 47 15.9269 47 16.8V22.2C47 23.0731 47.0016 23.6076 47.0342 24.0075C47.0495 24.1938 47.0686 24.3065 47.0847 24.375C47.0924 24.4076 47.0988 24.4276 47.1027 24.4384C47.1064 24.4488 47.109 24.454 47.109 24.454C47.2049 24.6422 47.3578 24.7951 47.546 24.891L47.5506 24.8931C47.5506 24.8931 47.5544 24.8947 47.5572 24.8957L47.5616 24.8973C47.5652 24.8987 47.5699 24.9002 47.5758 24.9021C47.5873 24.9057 47.6034 24.9102 47.625 24.9153C47.6935 24.9314 47.8062 24.9505 47.9925 24.9658C48.3924 24.9984 48.9269 25 49.8 25H59.2C60.0731 25 60.6076 24.9984 61.0075 24.9658C61.1938 24.9505 61.3065 24.9314 61.375 24.9153C61.4076 24.9076 61.4276 24.9012 61.4384 24.8973C61.4488 24.8936 61.454 24.891 61.454 24.891C61.6422 24.7951 61.7951 24.6422 61.891 24.454C61.891 24.454 61.8936 24.4488 61.8973 24.4384C61.9012 24.4276 61.9076 24.4076 61.9153 24.375C61.9314 24.3065 61.9505 24.1938 61.9658 24.0075C61.9984 23.6076 62 23.0731 62 22.2V16.8C62 15.9269 61.9984 15.3924 61.9658 14.9925C61.9505 14.8062 61.9314 14.6935 61.9153 14.625C61.9076 14.5924 61.9012 14.5724 61.8973 14.5616C61.8936 14.5512 61.891 14.546 61.891 14.546C61.7951 14.3578 61.6422 14.2049 61.454 14.109C61.454 14.109 61.4488 14.1064 61.4384 14.1027C61.4276 14.0988 61.4076 14.0924 61.375 14.0847C61.3065 14.0686 61.1938 14.0495 61.0075 14.0342ZM51 12H58V10.5C58 8.567 56.433 7 54.5 7C52.567 7 51 8.567 51 10.5V12Z" fill="url(#paint4_linear_6054_1646)"/>
<defs>
<linearGradient id="paint0_linear_6054_1646" x1="34" y1="0" x2="34" y2="27" gradientUnits="userSpaceOnUse">
<stop stop-color="#DEDEDE"/>
<stop offset="1" stop-color="#838383"/>
</linearGradient>
<linearGradient id="paint1_linear_6054_1646" x1="34" y1="0" x2="34" y2="27" gradientUnits="userSpaceOnUse">
<stop stop-color="#DEDEDE"/>
<stop offset="1" stop-color="#838383"/>
</linearGradient>
<linearGradient id="paint2_linear_6054_1646" x1="34" y1="0" x2="34" y2="27" gradientUnits="userSpaceOnUse">
<stop stop-color="#DEDEDE"/>
<stop offset="1" stop-color="#838383"/>
</linearGradient>
<linearGradient id="paint3_linear_6054_1646" x1="34" y1="0" x2="34" y2="27" gradientUnits="userSpaceOnUse">
<stop stop-color="#DEDEDE"/>
<stop offset="1" stop-color="#838383"/>
</linearGradient>
<linearGradient id="paint4_linear_6054_1646" x1="34" y1="0" x2="34" y2="27" gradientUnits="userSpaceOnUse">
<stop stop-color="#DEDEDE"/>
<stop offset="1" stop-color="#838383"/>
</linearGradient>
</defs>
</svg>
